<svg id="Layer_3" enable-background="new 0 0 64 64" height="512" viewBox="0 0 64 64" width="512" xmlns="http://www.w3.org/2000/svg" xmlns:xlink="http://www.w3.org/1999/xlink"><linearGradient id="SVGID_1_" gradientUnits="userSpaceOnUse" x1="32" x2="32" y1="63" y2="1"><stop offset="0" stop-color="#9f2fff"/><stop offset="1" stop-color="#0bb1d3"/></linearGradient><path d="m57.05 1c-1.589 0-3.083.619-4.207 1.742l-4.258 4.258h-45.585v30h-2v6h6v2.775l3.641.936c.4 1.477.988 2.895 1.755 4.229l-1.916 3.24 5.341 5.339 3.238-1.915c1.333.766 2.75 1.354 4.229 1.755l.937 3.641h7.551l.936-3.641c1.479-.4 2.896-.989 4.229-1.755l3.238 1.915 5.341-5.339-1.915-3.239c.767-1.335 1.354-2.753 1.755-4.229l3.64-.937v-2.775h6v-6h-2v-17.586l8.257-8.257c1.124-1.124 1.743-2.618 1.743-4.207 0-3.281-2.669-5.95-5.95-5.95zm-9.05 9.414 2.086 2.086-11.586 11.586-2.086-2.086zm-12.419 13.581 4.424 4.424-5.688 1.264zm6.419 3.591-2.086-2.086 11.586-11.586 2.086 2.086zm7.414-18.586 1.586-1.586 5.586 5.586-1.586 1.586zm-2.414 35.225-3.301.848-.138.59c-.393 1.676-1.056 3.273-1.97 4.749l-.319.515 1.735 2.937-3.146 3.146-2.938-1.736-.515.319c-1.472.914-3.069 1.576-4.748 1.97l-.587.137-.848 3.3h-4.449l-.849-3.3-.589-.138c-1.679-.394-3.276-1.057-4.748-1.97l-.515-.319-2.938 1.736-3.146-3.146 1.735-2.937-.319-.515c-.914-1.476-1.577-3.073-1.97-4.749l-.138-.59-3.299-.847v-1.225h5.051c.516 7.253 6.567 13 13.949 13s13.433-5.747 13.949-13h5.051zm-26.931-1.225c.495 3.94 3.859 7 7.931 7s7.436-3.06 7.931-7h4.019c-.512 6.149-5.67 11-11.95 11s-11.438-4.851-11.949-11zm2.021 0h11.82c-.478 2.833-2.942 5-5.91 5s-5.431-2.167-5.91-5zm30.91-2h-50v-2h50zm-2-4h-46v-28h41.585l-12.498 12.499-2.404 10.818 10.818-2.404 8.499-8.499zm8.843-27.257-1.843 1.843-5.586-5.586 1.843-1.843c.746-.746 1.738-1.157 2.793-1.157 2.178 0 3.95 1.772 3.95 3.95 0 1.055-.411 2.047-1.157 2.793zm-31.843 13.015v-3.758h2v-6h-17.343c-1.336 0-2.592.52-3.536 1.464l-2.121 2.122v.414c0 2.206 1.794 4 4 4h.414l1.121-1.122c.408-.408.915-.678 1.465-.8v13.922h6v-14h2v3.758c0 3.436 1.686 7.341 4.293 9.949l.707.707 4.328-4.328-.707-.707c-1.303-1.303-2.621-3.652-2.621-5.621zm-16.879-4.294-.5.5c-.8-.154-1.432-.786-1.585-1.585l1.499-1.5c.567-.567 1.32-.879 2.122-.879h15.343v2h-13.343c-1.336 0-2.592.52-3.536 1.464zm6.879 12.536h-2v-12h2zm9.031-.446c-1.839-2.195-3.031-5.213-3.031-7.796v-3.758h2v3.758c0 2.271 1.188 4.654 2.535 6.292zm21.969 4.446h-6v-2h4v-6h2zm-10-2h2v2h-2z" fill="url(#SVGID_1_)"/></svg>