<svg height="496pt" viewBox="-120 0 496 496" width="496pt" xmlns="http://www.w3.org/2000/svg" xmlns:xlink="http://www.w3.org/1999/xlink"><linearGradient id="linear0" gradientUnits="userSpaceOnUse" x1="128" x2="128" y1="496" y2="0"><stop offset="0" stop-color="#9f2fff"/><stop offset="1" stop-color="#0bb1d3"/></linearGradient><path d="m240 80c0-35.289062-28.710938-64-64-64-1.742188 0-3.566406.121094-5.480469.304688-11.320312-10.105469-26.183593-16.304688-42.519531-16.304688s-31.199219 6.199219-42.519531 16.304688c-1.914063-.183594-3.738281-.304688-5.480469-.304688-35.289062 0-64 28.710938-64 64v208h-16v65.375c0 16.738281 6.519531 32.464844 18.34375 44.28125 1.382812 1.382812 2.566406 2.96875 3.769531 4.527344-8.296875 3.785156-14.113281 12.113281-14.113281 21.816406 0 13.230469 10.769531 24 24 24h1.808594c6.648437 27.800781 31.625 48 60.816406 48h66.742188c29.199218 0 54.167968-20.199219 60.824218-48h1.808594c13.230469 0 24-10.769531 24-24 0-9.703125-5.816406-18.03125-14.113281-21.816406 1.203125-1.558594 2.378906-3.144532 3.769531-4.527344 11.832031-11.824219 18.34375-27.542969 18.34375-44.28125v-65.375h-16zm-16 0v208h-32v-224c0-11.375-3.015625-22.046875-8.238281-31.3125 22.78125 3.726562 40.238281 23.496094 40.238281 47.3125zm-96-64c26.472656 0 48 21.527344 48 48v224h-16v-224c0-17.648438-14.351562-32-32-32s-32 14.351562-32 32v224h-16v-224c0-26.472656 21.527344-48 48-48zm16 272h-32v-224c0-8.816406 7.175781-16 16-16s16 7.183594 16 16zm-112-208c0-23.816406 17.457031-43.585938 40.238281-47.3125-5.222656 9.265625-8.238281 19.9375-8.238281 31.3125v224h-32zm208 224v16h-224v-16zm-78.632812 176h-66.742188c-20.410156 0-38.015625-13.257812-44.199219-32h155.148438c-6.183594 18.742188-23.796875 32-44.207031 32zm62.632812-48h-192c-4.40625 0-8-3.585938-8-8s3.59375-8 8-8h192c4.40625 0 8 3.585938 8 8s-3.59375 8-8 8zm2.34375-45.65625c-3.984375 3.984375-7.199219 8.664062-10 13.65625h-176.679688c-2.800781-4.992188-6.015624-9.671875-10-13.65625-8.816406-8.808594-13.664062-20.511719-13.664062-32.96875v-17.375h224v17.375c0 12.457031-4.847656 24.160156-13.65625 32.96875zm0 0" fill="url(#linear0)"/></svg>