<svg id="Layer_35" enable-background="new 0 0 64 64" height="512" viewBox="0 0 64 64" width="512" xmlns="http://www.w3.org/2000/svg"><path d="m21.586 33 14.414 14.414 12.414-12.414-14.414-14.414zm14.414 11.586-11.586-11.586 9.586-9.586 11.586 11.586z"/><path d="m11.586 47 10.414 10.414 10.414-10.414-10.414-10.414zm12-6-1.586 1.586-1.586-1.586 1.586-1.586zm-1.586 7.586-1.586-1.586 1.586-1.586 1.586 1.586zm3-.172 1.586 1.586-1.586 1.586-1.586-1.586zm-4.414 1.586-1.586 1.586-1.586-1.586 1.586-1.586zm-1.586-4.414-1.586-1.586 1.586-1.586 1.586 1.586zm4.414-1.586 1.586-1.586 1.586 1.586-1.586 1.586zm-7.414 1.414 1.586 1.586-1.586 1.586-1.586-1.586zm4.414 7.586 1.586-1.586 1.586 1.586-1.586 1.586zm7.586-4.414-1.586-1.586 1.586-1.586 1.586 1.586z"/><path d="m58 5c0-2.206-1.794-4-4-4h-.437l-12.786 13.771-1.975-.987-3.398 3.398c-.457-.116-.928-.182-1.404-.182-1.534 0-3.036.622-4.121 1.707l-10.172 10.172c-1.101 1.1-1.707 2.564-1.707 4.121v1.586l-12 12v.414c0 8.822 7.178 16 16 16h.414l12-12h1.586c1.534 0 3.036-.622 4.121-1.707l10.172-10.172c1.085-1.085 1.707-2.587 1.707-4.121 0-.996-.266-1.976-.747-2.839l4.161-4.161-5.414-5.414-4 4-2.586-2.586 2.803-2.803-1.013-2.024 12.796-13.78zm-49.727 44.687 11.039 11.039c-5.564-1.088-9.95-5.474-11.039-11.039zm40.606-11.98-10.172 10.172c-.713.713-1.699 1.121-2.707 1.121h-2.414l-11.586 11.586-13.586-13.586 11.586-11.586v-2.414c0-1.022.398-1.984 1.121-2.707l10.172-10.172c.713-.712 1.699-1.121 2.707-1.121s1.994.409 2.707 1.121l12.172 12.172c.713.713 1.121 1.699 1.121 2.707s-.408 1.994-1.121 2.707zm1.121-12.293 2.586 2.586-2.586 2.586-2.586-2.586zm-7.204-6.587.987 1.976-1.783 1.783-3.879-3.879c-.238-.238-.499-.449-.773-.641l1.849-1.849 2.025 1.013 13.177-14.19c.797.162 1.423.799 1.568 1.602z"/><path d="m37.465 31.465h2v2h-2z" transform="matrix(.707 -.707 .707 .707 -11.691 36.699)"/><path d="m34.671 28.722h2v1.899h-2z" transform="matrix(.707 -.707 .707 .707 -10.534 33.906)"/><path d="m40.293 34.293h2v2h-2z" transform="matrix(.707 -.707 .707 .707 -12.862 39.536)"/></svg>